<svg width="184" height="20" viewBox="0 0 184 10" fill="none" xmlns="http://www.w3.org/2000/svg">
    <path d="M3.20508 9H0.925781V0.433594H5.98828V2.29102H3.20508V3.92578H5.77148V5.7832H3.20508V9ZM9.70898 5.88281V9H7.39453V0.433594H10.2012C12.5293 0.433594 13.6934 1.27734 13.6934 2.96484C13.6934 3.95703 13.209 4.72461 12.2402 5.26758L14.7363 9H12.1113L10.2949 5.88281H9.70898ZM9.70898 4.14258H10.1426C10.9512 4.14258 11.3555 3.78516 11.3555 3.07031C11.3555 2.48047 10.959 2.18555 10.166 2.18555H9.70898V4.14258ZM20.7715 9L20.3496 7.39453H17.5664L17.1328 9H14.5898L17.3848 0.398438H20.4727L23.3027 9H20.7715ZM19.8691 5.49609L19.5 4.08984C19.4141 3.77734 19.3086 3.37305 19.1836 2.87695C19.0625 2.38086 18.9824 2.02539 18.9434 1.81055C18.9082 2.00977 18.8379 2.33789 18.7324 2.79492C18.6309 3.25195 18.4023 4.15234 18.0469 5.49609H19.8691ZM31.5176 0.433594V5.58984C31.5176 6.71094 31.1992 7.58008 30.5625 8.19727C29.9297 8.81055 29.0156 9.11719 27.8203 9.11719C26.6523 9.11719 25.7539 8.81836 25.125 8.2207C24.5 7.62305 24.1875 6.76367 24.1875 5.64258V0.433594H26.5137V5.46094C26.5137 6.06641 26.627 6.50586 26.8535 6.7793C27.0801 7.05273 27.4141 7.18945 27.8555 7.18945C28.3281 7.18945 28.6699 7.05469 28.8809 6.78516C29.0957 6.51172 29.2031 6.06641 29.2031 5.44922V0.433594H31.5176ZM40.5879 4.53516C40.5879 5.96484 40.1934 7.06641 39.4043 7.83984C38.6191 8.61328 37.5137 9 36.0879 9H33.3164V0.433594H36.2812C37.6562 0.433594 38.7168 0.785156 39.4629 1.48828C40.2129 2.19141 40.5879 3.20703 40.5879 4.53516ZM38.1855 4.61719C38.1855 3.83203 38.0293 3.25 37.7168 2.87109C37.4082 2.49219 36.9375 2.30273 36.3047 2.30273H35.6309V7.10156H36.1465C36.8496 7.10156 37.3652 6.89844 37.6934 6.49219C38.0215 6.08203 38.1855 5.45703 38.1855 4.61719ZM48.9785 9L47.2266 2.83008H47.1738C47.2559 3.88086 47.2969 4.69727 47.2969 5.2793V9H45.2461V0.433594H48.3281L50.1152 6.51562H50.1621L51.9141 0.433594H55.002V9H52.875V5.24414C52.875 5.04883 52.877 4.83203 52.8809 4.59375C52.8887 4.35547 52.916 3.77148 52.9629 2.8418H52.9102L51.1816 9H48.9785ZM62.1035 9L61.6816 7.39453H58.8984L58.4648 9H55.9219L58.7168 0.398438H61.8047L64.6348 9H62.1035ZM61.2012 5.49609L60.832 4.08984C60.7461 3.77734 60.6406 3.37305 60.5156 2.87695C60.3945 2.38086 60.3145 2.02539 60.2754 1.81055C60.2402 2.00977 60.1699 2.33789 60.0645 2.79492C59.9629 3.25195 59.7344 4.15234 59.3789 5.49609H61.2012ZM73.7227 9H70.6875L67.5586 2.96484H67.5059C67.5801 3.91406 67.6172 4.63867 67.6172 5.13867V9H65.5664V0.433594H68.5898L71.707 6.38672H71.7422C71.6875 5.52344 71.6602 4.83008 71.6602 4.30664V0.433594H73.7227V9ZM80.8301 9L80.4082 7.39453H77.625L77.1914 9H74.6484L77.4434 0.398438H80.5312L83.3613 9H80.8301ZM79.9277 5.49609L79.5586 4.08984C79.4727 3.77734 79.3672 3.37305 79.2422 2.87695C79.1211 2.38086 79.041 2.02539 79.002 1.81055C78.9668 2.00977 78.8965 2.33789 78.791 2.79492C78.6895 3.25195 78.4609 4.15234 78.1055 5.49609H79.9277ZM87.7324 3.98438H91.4297V8.60156C90.4258 8.94531 89.3223 9.11719 88.1191 9.11719C86.7988 9.11719 85.7773 8.73438 85.0547 7.96875C84.3359 7.20312 83.9766 6.11133 83.9766 4.69336C83.9766 3.31055 84.3711 2.23438 85.1602 1.46484C85.9492 0.695312 87.0547 0.310547 88.4766 0.310547C89.0156 0.310547 89.5234 0.361328 90 0.462891C90.4805 0.564453 90.8984 0.693359 91.2539 0.849609L90.5215 2.66602C89.9043 2.36133 89.2266 2.20898 88.4883 2.20898C87.8125 2.20898 87.2891 2.42969 86.918 2.87109C86.5508 3.30859 86.3672 3.93555 86.3672 4.75195C86.3672 5.55273 86.5332 6.16406 86.8652 6.58594C87.2012 7.00391 87.6836 7.21289 88.3125 7.21289C88.6562 7.21289 88.9727 7.17969 89.2617 7.11328V5.77148H87.7324V3.98438ZM98.2617 9H93.1758V0.433594H98.2617V2.29102H95.4902V3.63867H98.0566V5.49609H95.4902V7.11328H98.2617V9ZM103.494 9L101.742 2.83008H101.689C101.771 3.88086 101.812 4.69727 101.812 5.2793V9H99.7617V0.433594H102.844L104.631 6.51562H104.678L106.43 0.433594H109.518V9H107.391V5.24414C107.391 5.04883 107.393 4.83203 107.396 4.59375C107.404 4.35547 107.432 3.77148 107.479 2.8418H107.426L105.697 9H103.494ZM116.449 9H111.363V0.433594H116.449V2.29102H113.678V3.63867H116.244V5.49609H113.678V7.11328H116.449V9ZM126.105 9H123.07L119.941 2.96484H119.889C119.963 3.91406 120 4.63867 120 5.13867V9H117.949V0.433594H120.973L124.09 6.38672H124.125C124.07 5.52344 124.043 4.83008 124.043 4.30664V0.433594H126.105V9ZM131.736 9H129.422V2.32617H127.33V0.433594H133.822V2.32617H131.736V9ZM143.766 6.39844C143.766 6.92969 143.631 7.40234 143.361 7.81641C143.092 8.22656 142.703 8.54688 142.195 8.77734C141.688 9.00391 141.092 9.11719 140.408 9.11719C139.838 9.11719 139.359 9.07812 138.973 9C138.586 8.91797 138.184 8.77734 137.766 8.57812V6.51562C138.207 6.74219 138.666 6.91992 139.143 7.04883C139.619 7.17383 140.057 7.23633 140.455 7.23633C140.799 7.23633 141.051 7.17773 141.211 7.06055C141.371 6.93945 141.451 6.78516 141.451 6.59766C141.451 6.48047 141.418 6.37891 141.352 6.29297C141.289 6.20312 141.186 6.11328 141.041 6.02344C140.9 5.93359 140.521 5.75 139.904 5.47266C139.346 5.21875 138.926 4.97266 138.645 4.73438C138.367 4.49609 138.16 4.22266 138.023 3.91406C137.891 3.60547 137.824 3.24023 137.824 2.81836C137.824 2.0293 138.111 1.41406 138.686 0.972656C139.26 0.53125 140.049 0.310547 141.053 0.310547C141.939 0.310547 142.844 0.515625 143.766 0.925781L143.057 2.71289C142.256 2.3457 141.564 2.16211 140.982 2.16211C140.682 2.16211 140.463 2.21484 140.326 2.32031C140.189 2.42578 140.121 2.55664 140.121 2.71289C140.121 2.88086 140.207 3.03125 140.379 3.16406C140.555 3.29688 141.027 3.53906 141.797 3.89062C142.535 4.22266 143.047 4.58008 143.332 4.96289C143.621 5.3418 143.766 5.82031 143.766 6.39844ZM148.148 3.60938L149.625 0.433594H152.133L149.314 5.6543V9H146.982V5.72461L144.164 0.433594H146.684L148.148 3.60938ZM158.66 6.39844C158.66 6.92969 158.525 7.40234 158.256 7.81641C157.986 8.22656 157.598 8.54688 157.09 8.77734C156.582 9.00391 155.986 9.11719 155.303 9.11719C154.732 9.11719 154.254 9.07812 153.867 9C153.48 8.91797 153.078 8.77734 152.66 8.57812V6.51562C153.102 6.74219 153.561 6.91992 154.037 7.04883C154.514 7.17383 154.951 7.23633 155.35 7.23633C155.693 7.23633 155.945 7.17773 156.105 7.06055C156.266 6.93945 156.346 6.78516 156.346 6.59766C156.346 6.48047 156.312 6.37891 156.246 6.29297C156.184 6.20312 156.08 6.11328 155.936 6.02344C155.795 5.93359 155.416 5.75 154.799 5.47266C154.24 5.21875 153.82 4.97266 153.539 4.73438C153.262 4.49609 153.055 4.22266 152.918 3.91406C152.785 3.60547 152.719 3.24023 152.719 2.81836C152.719 2.0293 153.006 1.41406 153.58 0.972656C154.154 0.53125 154.943 0.310547 155.947 0.310547C156.834 0.310547 157.738 0.515625 158.66 0.925781L157.951 2.71289C157.15 2.3457 156.459 2.16211 155.877 2.16211C155.576 2.16211 155.357 2.21484 155.221 2.32031C155.084 2.42578 155.016 2.55664 155.016 2.71289C155.016 2.88086 155.102 3.03125 155.273 3.16406C155.449 3.29688 155.922 3.53906 156.691 3.89062C157.43 4.22266 157.941 4.58008 158.227 4.96289C158.516 5.3418 158.66 5.82031 158.66 6.39844ZM163.764 9H161.449V2.32617H159.357V0.433594H165.85V2.32617H163.764V9ZM172.16 9H167.074V0.433594H172.16V2.29102H169.389V3.63867H171.955V5.49609H169.389V7.11328H172.16V9ZM177.393 9L175.641 2.83008H175.588C175.67 3.88086 175.711 4.69727 175.711 5.2793V9H173.66V0.433594H176.742L178.529 6.51562H178.576L180.328 0.433594H183.416V9H181.289V5.24414C181.289 5.04883 181.291 4.83203 181.295 4.59375C181.303 4.35547 181.33 3.77148 181.377 2.8418H181.324L179.596 9H177.393Z" fill="white"/>
</svg>
