<?xml version="1.0" encoding="UTF-8"?>
<svg width="106px" height="44px" viewBox="0 0 106 44" version="1.1" xmlns="http://www.w3.org/2000/svg" xmlns:xlink="http://www.w3.org/1999/xlink">
    <!-- Generator: sketchtool 49.1 (51147) - http://www.bohemiancoding.com/sketch -->
    <title>9E619064-0A81-437E-A17D-D65C58984732</title>
    <desc>Created with sketchtool.</desc>
    <defs>
        <polygon id="path-1" points="0.000107287449 0 105.987018 0 105.987018 43.8048039 0.000107287449 43.8048039"></polygon>
    </defs>
    <g id="Symbols" stroke="none" stroke-width="1" fill="none" fill-rule="evenodd">
        <g id="Header" transform="translate(-150.000000, -28.000000)">
            <g id="Page-1" transform="translate(150.000000, 28.000000)">
                <mask id="mask-2" fill="white">
                    <use xlink:href="#path-1"></use>
                </mask>
                <g id="Clip-2"></g>
                <path d="M27.0354717,8.85122549 L23.3561559,16.4358333 L30.6401154,16.4358333 L27.0354717,8.85122549 Z M18.3552733,24.1826373 L15.7123543,24.1826373 L2.94514777,24.1826373 C2.20057287,24.1826373 1.37896559,24.0174216 0.854544534,23.5737549 C0.414236842,23.2150686 0.000107287449,22.4946765 0.000107287449,21.6951275 L0.000107287449,-0.000107843137 L7.8149251,-0.000107843137 L7.8149251,20.0824412 C7.8149251,20.3033039 7.84410729,20.7735 8.11919231,21.0226176 C8.36616802,21.2445588 8.78051215,21.2728137 9.10795344,21.2728137 L17.1251154,21.2728137 L25.1073016,4.82436275 L25.652751,4.82436275 L29.513168,4.81853922 C30.3259777,4.81853922 31.7250061,5.18304902 32.4086417,6.64712745 C33.0950668,8.11120588 40.7126903,24.1826373 40.7126903,24.1826373 L34.3224352,24.1826373 L31.9953704,19.2848333 L21.9723623,19.2848333 L19.5978765,24.1826373 L18.3552733,24.1826373 Z M62.6317308,4.81853922 L62.6375243,24.1727157 C62.5665,24.1953627 59.2236377,24.1727157 57.2010547,24.1727157 C55.8833502,24.1727157 54.9520951,23.450598 54.2682449,22.4838922 L45.131002,9.48361765 L45.131002,24.1727157 L41.607253,24.1727157 L41.6081113,4.81853922 L47.1827672,4.81853922 C48.3427591,4.81853922 49.3744352,5.49083333 50.0076457,6.38808824 L57.0220992,16.3448137 C57.1572814,16.5413039 59.1127024,19.368951 59.1127024,19.368951 L59.1088401,4.81853922 L62.6317308,4.81853922 Z M82.1604069,24.1826373 L76.0512449,24.1826373 L73.6308401,24.1826373 C70.6321559,24.1826373 68.624164,23.7672255 67.055836,21.8025392 C65.9016377,20.3649902 65.2978239,18.4581078 65.2978239,14.7478725 C65.2978239,11.5125784 65.5962976,9.07791176 66.9751559,7.3362451 C68.7340263,5.06571569 71.5413097,4.81853922 73.713666,4.81853922 L76.1357874,4.81853922 L82.1604069,4.81853922 L82.1604069,7.72232353 L77.8412287,7.72232353 C75.6944069,7.72232353 73.879747,7.85906863 72.7791923,9.51985294 C72.202415,10.3778529 71.7056741,11.8438725 71.7056741,14.7235 C71.7056741,17.6262059 72.229666,18.8146373 72.6148279,19.4237353 C73.6055202,20.945402 75.3654636,21.2766961 77.6468239,21.2766961 L82.1604069,21.2766961 L82.1604069,24.1826373 Z M105.957192,24.1826373 L98.4738927,24.1826373 L92.6415324,16.6871078 C92.0939372,15.9969118 91.7907429,15.1104412 91.7907429,14.2541667 C91.7907429,13.5348529 92.5413259,12.6982059 93.1655243,12.0707745 L100.45635,4.82436275 L104.942897,4.82436275 L96.8965526,12.5066765 L97.9983947,13.9532843 L99.6358158,16.0594608 L105.957192,24.1826373 Z M84.6923907,24.1826373 L84.6923907,4.82436275 L87.2780182,4.82436275 L90.9088401,4.82436275 L90.9088401,24.1826373 L87.2780182,24.1826373 L84.6923907,24.1826373 Z M105.987018,43.6386176 L104.696994,43.6386176 L101.951937,43.6386176 L101.288686,43.6386176 L101.288686,32.6683824 L97.7104352,42.0505196 C97.2960911,43.1587157 96.9238036,43.8049118 95.6333502,43.8049118 C94.2420466,43.8049118 93.9055931,42.9719314 93.5556215,42.0505196 L89.9801599,32.6683824 L89.9820911,43.6386176 L87.2389656,43.6386176 L87.2389656,29.0120686 L91.2431478,29.0120686 C91.4143785,29.004951 91.5613623,29.0120686 91.6456903,29.0120686 C93.3290304,29.0120686 93.8053866,29.702049 94.2021356,30.7252647 L96.9967591,37.9736176 L99.7922409,30.7252647 C100.414723,29.071598 101.309285,28.8966765 102.347613,28.8966765 L105.987018,28.8966765 L105.987018,43.6386176 Z M9.40943117,43.6386176 L4.71109919,43.6386176 L4.71109919,31.2071078 L0.000107287449,31.2071078 L0.000107287449,29.0120686 L14.1167753,29.0120686 L14.1167753,31.2071078 L9.40943117,31.2071078 L9.40943117,43.6386176 Z M77.5661437,28.8446961 C79.7715445,28.8446961 82.3696174,28.9055196 83.9300061,30.3491078 C85.508419,31.8112451 85.5695729,34.3621667 85.5695729,36.3257745 C85.5695729,38.248402 85.508419,40.8178725 83.9300061,42.3015784 C82.3880709,43.7404216 79.7294879,43.8049118 77.5661437,43.8049118 C75.4085931,43.8049118 72.7470061,43.7404216 71.2067874,42.3015784 C69.6288036,40.8178725 69.5644312,38.248402 69.5644312,36.3257745 C69.5644312,34.3621667 69.6288036,31.8112451 71.2067874,30.3491078 C72.7684636,28.9055196 75.3654636,28.8446961 77.5661437,28.8446961 Z M74.3397955,36.3257745 C74.3397955,37.4721471 74.3990182,39.8151471 74.8785931,40.5441667 C75.5006457,41.505049 76.3331964,41.6105196 77.5165769,41.6105196 C78.7445891,41.6105196 79.5125526,41.505049 80.1573502,40.5441667 C80.6991518,39.7517353 80.6991518,37.4937157 80.6991518,36.3257745 C80.6991518,35.0523627 80.7184636,32.9185784 80.1573502,32.1045784 C79.5125526,31.1434804 78.7445891,31.0390882 77.5165769,31.0390882 C76.3115243,31.0390882 75.5006457,31.1434804 74.8785931,32.1045784 C74.358249,32.877598 74.3397955,35.1108137 74.3397955,36.3257745 Z M41.4010466,43.6386176 L32.0256255,43.6386176 C31.4653704,43.6386176 30.8422449,43.5124412 30.4463543,43.1792059 C30.1150506,42.9074412 29.8026296,42.363049 29.8026296,41.7563235 L29.8026296,29.0120686 L34.5011761,29.0120686 L34.5011761,40.5441667 C34.5011761,40.7113235 34.5234919,41.0661275 34.7288401,41.2546373 C34.9183097,41.423951 35.2277267,41.4433627 35.4766336,41.4433627 L41.4010466,41.4433627 L41.4010466,43.6386176 Z M28.3480263,43.6386176 L17.8720506,43.6386176 C17.2680223,43.6386176 16.6633502,43.5946176 16.1022368,43.1382255 C15.4370547,42.571402 15.4370547,41.9879706 15.4370547,41.2949706 L15.4370547,31.2668529 C15.4370547,30.7047745 15.5218117,30.0989118 16.0633988,29.5965784 C16.6049858,29.0931667 17.3070749,29.0120686 17.8272045,29.0120686 L28.2868725,29.0120686 L28.2868725,31.2071078 L21.0923907,31.2071078 C20.8220263,31.2071078 20.530419,31.2668529 20.3649818,31.4133039 C20.1356012,31.6011667 20.1356012,31.9352647 20.1356012,32.1229118 L20.1356012,35.0726373 L28.0787348,35.0726373 L28.0787348,37.2640098 L20.1356012,37.2640098 L20.1356012,40.7113235 C20.1356012,41.0044412 20.2407429,41.1718137 20.3435243,41.2546373 C20.573334,41.4660098 20.9464798,41.4433627 21.2363704,41.4433627 L28.3480263,41.4433627 L28.3480263,43.6386176 Z M55.1151721,43.6386176 L44.6389818,43.6386176 C44.0360263,43.6386176 43.4332854,43.5946176 42.8704555,43.1382255 C42.2072045,42.571402 42.2072045,41.9879706 42.2072045,41.2949706 L42.2072045,31.2668529 C42.2072045,30.7047745 42.2908887,30.0989118 42.83033,29.5965784 C43.3710587,29.0931667 44.0761518,29.0120686 44.5982126,29.0120686 L55.0529453,29.0120686 L55.0529453,31.2071078 L47.8606093,31.2071078 C47.593249,31.2071078 47.2992814,31.2668529 47.1332004,31.4133039 C46.9046781,31.6011667 46.9046781,31.9352647 46.9046781,32.1229118 L46.9046781,35.0726373 L54.8478117,35.0726373 L54.8478117,37.2640098 L46.9046781,37.2640098 L46.9046781,40.7113235 C46.9046781,41.0044412 47.008747,41.1718137 47.1108846,41.2546373 C47.3413381,41.4660098 47.7155567,41.4433627 48.007164,41.4433627 L55.1151721,41.4433627 L55.1151721,43.6386176 Z M68.8975324,43.6386176 L67.7444069,43.6386176 L64.2719413,43.6386176 L62.2658806,43.6386176 C60.8754352,43.6386176 58.9824555,43.4490294 57.6317065,41.9232647 C56.2597146,40.3770098 56.1577915,38.1418529 56.1577915,36.5349902 C56.1577915,34.4443431 56.3444717,32.2892059 57.5705526,30.8503627 C59.0262287,29.1350098 61.2908522,29.0120686 62.3311113,29.0120686 L64.3360992,29.0120686 L67.5577267,29.0120686 L68.6679372,29.0120686 L68.6679372,31.2071078 L67.5577267,31.2071078 L65.6224757,31.2071078 C63.9979291,31.2071078 62.6306579,31.3108529 61.797249,32.5618333 C61.3608036,33.2108333 60.9863704,34.3192451 60.9863704,36.4937941 C60.9863704,38.6851667 61.3850506,39.5843627 61.6727955,40.0426961 C62.4225202,41.1942451 63.75267,41.4433627 65.4765648,41.4433627 L67.7444069,41.4433627 L68.8975324,41.4433627 L68.8975324,43.6386176 Z" id="Fill-1" fill="#FFFFFF" mask="url(#mask-2)"></path>
            </g>
        </g>
    </g>
</svg>